:FULLY-SPECIFIED
:FORCE-ALL-JOINTS-BE-3DOF
:DEGREES
2548
root 4.05349 13.7339 -23.8981 -15.406 82.0385 -18.3637
lfemur -38.5047 12.7917 -12.8316
ltibia 89.2679 -0 0
lfoot -28.2181 26.153 -0.018192
ltoes -38.6348 0 0
rfemur -57.1873 -24.2474 10.8972
rtibia 66.3513 -0 0
rfoot 0.103389 5.14373 0.416608
rtoes 8.28321 -0 0
lowerback 16.9224 -0.254943 -3.80704
upperback -1.05615 -0.754211 3.02544
thorax -10.62 -0.0196629 5.6848
lowerneck 5.10458 -14.6252 -15.1809
upperneck 0.190058 -20.4988 15.1572
head 2.38068 -10.3973 6.25744
lclavicle 5.1684e-15 3.18055e-15 0
lhumerus -50.8259 -46.8693 114.972
lradius 106.426 -0 0
lwrist 80.9394 0 0
lhand 8.43329 40.7382 -0.0375892
lfingers 7.12502 -0 0
lthumb 33.6365 67.5782 -0.0434362
rclavicle 5.1684e-15 3.18055e-15 0
rhumerus 11.968 -9.65847 -59.7689
rradius 77.8425 -0 0
rwrist 26.757 0 0
rhand -36.867 -47.4751 0.26608
rfingers 7.12502 -0 0
rthumb -9.94389 -77.1351 0.252305
2549
root 4.01128 13.7477 -24.0363 -11.7177 80.0402 -14.8515
lfemur -38.6832 12.9521 -13.1096
ltibia 89.0988 -0 0
lfoot -28.3034 26.2888 -0.0212244
ltoes -38.5014 0 0
rfemur -57.271 -24.055 11.2698
rtibia 67.2376 -0 0
rfoot -0.237283 4.375 0.486308
rtoes 8.30795 -0 0
lowerback 16.9883 -0.205443 -3.88478
upperback -1.04217 -0.710185 2.99683
thorax -10.6483 0.00495952 5.68697
lowerneck 5.09922 -14.6296 -15.1876
upperneck 0.192084 -20.5121 15.2744
head 2.39836 -10.4048 6.29028
lclavicle 5.1684e-15 3.18055e-15 0
lhumerus -50.1004 -47.4054 114.907
lradius 106.099 -0 0
lwrist 80.6573 0 0
lhand 8.26713 40.8821 -0.0438556
lfingers 7.12502 -0 0
lthumb 33.4782 67.7527 -0.0506777
rclavicle 5.1684e-15 3.18055e-15 0
rhumerus 13.0223 -8.18933 -59.3448
rradius 78.2967 -0 0
rwrist 26.302 0 0
rhand -36.4121 -47.105 0.310509
rfingers 7.12502 -0 0
rthumb -9.50475 -76.7715 0.29443
2550
root 3.96908 13.7614 -24.1744 -9.23608 78.0158 -12.5465
lfemur -38.8627 13.1117 -13.3884
ltibia 88.9298 -0 0
lfoot -28.3887 26.4246 -0.0240547
ltoes -38.3681 0 0
rfemur -57.3532 -23.862 11.6416
rtibia 68.1239 -0 0
rfoot -0.578862 3.60586 0.551429
rtoes 8.33268 -0 0
lowerback 17.0542 -0.155854 -3.96247
upperback -1.02822 -0.666153 2.96824
thorax -10.6765 0.029583 5.68913
lowerneck 5.09386 -14.6339 -15.1944
upperneck 0.194082 -20.5253 15.3916
head 2.41604 -10.4123 6.32312
lclavicle 5.1684e-15 3.18055e-15 0
lhumerus -49.3665 -47.9409 114.831
lradius 105.773 -0 0
lwrist 80.3752 0 0
lhand 8.10096 41.026 -0.0497048
lfingers 7.12502 -0 0
lthumb 33.3199 67.9272 -0.057437
rclavicle 5.1684e-15 3.18055e-15 0
rhumerus 14.084 -6.72818 -58.895
rradius 78.7508 -0 0
rwrist 25.8471 0 0
rhand -35.957 -46.7345 0.351997
rfingers 7.12502 -0 0
rthumb -9.06534 -76.4075 0.333765
2551
root 3.92687 13.7752 -24.3126 -7.44571 75.9768 -10.9335
lfemur -39.043 13.2704 -13.6679
ltibia 88.7607 -0 0
lfoot -28.4739 26.5603 -0.026683
ltoes -38.2348 0 0
rfemur -57.4338 -23.6686 12.0124
rtibia 69.0102 -0 0
rfoot -0.921289 2.83634 0.611959
rtoes 8.35741 -0 0
lowerback 17.1199 -0.106176 -4.0401
upperback -1.01428 -0.622113 2.93966
thorax -10.7047 0.0542076 5.69128
lowerneck 5.0885 -14.6383 -15.2011
upperneck 0.19605 -20.5386 15.5088
head 2.43371 -10.4199 6.35596
lclavicle 5.1684e-15 3.18055e-15 0
lhumerus -48.6238 -48.4757 114.744
lradius 105.447 -0 0
lwrist 80.0931 0 0
lhand 7.93478 41.1699 -0.0551365
lfingers 7.12502 -0 0
lthumb 33.1615 68.1018 -0.063714
rclavicle 5.1684e-15 3.18055e-15 0
rhumerus 15.1543 -5.27557 -58.4192
rradius 79.205 -0 0
rwrist 25.3922 0 0
rhand -35.5016 -46.3637 0.39054
rfingers 7.12502 -0 0
rthumb -8.6257 -76.0432 0.370307
2552
root 3.88466 13.7889 -24.4508 -6.08597 73.9286 -9.75188
lfemur -39.2243 13.4282 -13.9481
ltibia 88.5916 -0 0
lfoot -28.5592 26.6961 -0.0291092
ltoes -38.1014 0 0
rfemur -57.5131 -23.4747 12.3825
rtibia 69.8965 -0 0
rfoot -1.2645 2.06646 0.667883
rtoes 8.38214 -0 0
lowerback 17.1856 -0.0564083 -4.11768
upperback -1.00036 -0.578067 2.91109
thorax -10.733 0.0788333 5.69341
lowerneck 5.08315 -14.6427 -15.2078
upperneck 0.19799 -20.5518 15.626
head 2.45139 -10.4275 6.3888
lclavicle 5.1684e-15 3.18055e-15 0
lhumerus -47.8719 -49.0098 114.645
lradius 105.12 -0 0
lwrist 79.811 0 0
lhand 7.76858 41.3139 -0.0601506
lfingers 7.12502 -0 0
lthumb 33.0032 68.2763 -0.0695085
rclavicle 5.1684e-15 3.18055e-15 0
rhumerus 16.2345 -3.8321 -57.9174
rradius 79.6591 -0 0
rwrist 24.9373 0 0
rhand -35.046 -45.9925 0.426134
rfingers 7.12502 -0 0
rthumb -8.18582 -75.6787 0.404052
2553
root 3.84246 13.8027 -24.589 -5.01174 71.8744 -8.85667
lfemur -39.4065 13.5852 -14.2289
ltibia 88.4225 -0 0
lfoot -28.6445 26.8319 -0.0313333
ltoes -37.9681 0 0
rfemur -57.5908 -23.2803 12.7517
rtibia 70.7828 -0 0
rfoot -1.60844 1.29625 0.719191
rtoes 8.40687 -0 0
lowerback 17.2513 -0.00655203 -4.1952
upperback -0.986473 -0.534014 2.88253
thorax -10.7612 0.10346 5.69554
lowerneck 5.07779 -14.647 -15.2145
upperneck 0.199901 -20.5651 15.7433
head 2.46905 -10.4351 6.42163
lclavicle 5.1684e-15 3.18055e-15 0
lhumerus -47.1104 -49.5429 114.535
lradius 104.794 -0 0
lwrist 79.5289 0 0
lhand 7.60237 41.4579 -0.0647472
lfingers 7.12502 -0 0
lthumb 32.8448 68.4509 -0.0748205
rclavicle 5.1684e-15 3.18055e-15 0
rhumerus 17.3258 -2.39836 -57.389
rradius 80.1133 -0 0
rwrist 24.4824 0 0
rhand -34.5902 -45.6212 0.458775
rfingers 7.12502 -0 0
rthumb -7.74575 -75.3139 0.434996
2554
root 3.80025 13.8165 -24.7272 -4.13617 69.8161 -8.16114
lfemur -39.5896 13.7413 -14.5105
ltibia 88.2534 -0 0
lfoot -28.7298 26.9677 -0.0333552
ltoes -37.8348 0 0
rfemur -57.667 -23.0855 13.1201
rtibia 71.6692 -0 0
rfoot -1.95304 0.525741 0.765869
rtoes 8.4316 -0 0
lowerback 17.3168 0.0433929 -4.27266
upperback -0.972602 -0.489953 2.85398
thorax -10.7895 0.128088 5.69765
lowerneck 5.07243 -14.6514 -15.2213
upperneck 0.201784 -20.5783 15.8605
head 2.48672 -10.4427 6.45447
lclavicle 5.1684e-15 3.18055e-15 0
lhumerus -46.3389 -50.075 114.412
lradius 104.468 -0 0
lwrist 79.2467 0 0
lhand 7.43615 41.6018 -0.0689262
lfingers 7.12502 -0 0
lthumb 32.6864 68.6255 -0.0796499
rclavicle 5.1684e-15 3.18055e-15 0
rhumerus 18.4296 -0.974996 -56.8339
rradius 80.5674 -0 0
rwrist 24.0275 0 0
rhand -34.1341 -45.2495 0.488459
rfingers 7.12502 -0 0
rthumb -7.30548 -74.9489 0.463138
2555
root 3.75804 13.8302 -24.8654 -3.40415 67.7547 -7.61032
lfemur -39.7737 13.8965 -14.7928
ltibia 88.0844 -0 0
lfoot -28.8151 27.1035 -0.035175
ltoes -37.7014 0 0
rfemur -57.7418 -22.8902 13.4877
rtibia 72.5555 -0 0
rfoot -2.29824 -0.245046 0.807909
rtoes 8.45633 -0 0
lowerback 17.3823 0.0934264 -4.35006
upperback -0.958754 -0.445886 2.82544
thorax -10.8177 0.152716 5.69975
lowerneck 5.06707 -14.6558 -15.228
upperneck 0.203637 -20.5916 15.9778
head 2.50438 -10.4503 6.4873
lclavicle 5.1684e-15 3.18055e-15 0
lhumerus -45.5569 -50.6059 114.277
lradius 104.142 -0 0
lwrist 78.9646 0 0
lhand 7.26992 41.7458 -0.0726874
lfingers 7.12502 -0 0
lthumb 32.528 68.8001 -0.0839966
rclavicle 5.1684e-15 3.18055e-15 0
rhumerus 19.5469 0.437348 -56.2515
rradius 81.0216 -0 0
rwrist 23.5726 0 0
rhand -33.6779 -44.8776 0.515185
rfingers 7.12502 -0 0
rthumb -6.86504 -74.5837 0.488473
2556
root 3.71584 13.844 -25.0036 -2.77908 65.6912 -7.16775
lfemur -39.9586 14.0509 -15.0758
ltibia 87.9153 -0 0
lfoot -28.9004 27.2392 -0.0367926
ltoes -37.5681 0 0
rfemur -57.8151 -22.6945 13.8544
rtibia 73.4418 -0 0
rfoot -2.64397 -1.01608 0.845301
rtoes 8.48106 -0 0
lowerback 17.4477 0.143548 -4.4274
upperback -0.944928 -0.401812 2.79691
thorax -10.8459 0.177346 5.70183
lowerneck 5.06172 -14.6601 -15.2347
upperneck 0.205462 -20.6049 16.0951
head 2.52203 -10.4579 6.52013
lclavicle 5.1684e-15 3.18055e-15 0
lhumerus -44.764 -51.1357 114.129
lradius 103.815 -0 0
lwrist 78.6825 0 0
lhand 7.10368 41.8898 -0.0760308
lfingers 7.12502 -0 0
lthumb 32.3696 68.9747 -0.0878605
rclavicle 5.1684e-15 3.18055e-15 0
rhumerus 20.6791 1.83799 -55.6413
rradius 81.4757 -0 0
rwrist 23.1177 0 0
rhand -33.2215 -44.5056 0.538947
rfingers 7.12502 -0 0
rthumb -6.42444 -74.2183 0.511
